<?xml version="1.0" encoding="UTF-8" standalone="no"?>
<svg
   xmlns:dc="http://purl.org/dc/elements/1.1/"
   xmlns:cc="http://creativecommons.org/ns#"
   xmlns:rdf="http://www.w3.org/1999/02/22-rdf-syntax-ns#"
   xmlns:svg="http://www.w3.org/2000/svg"
   xmlns="http://www.w3.org/2000/svg"
   xmlns:sodipodi="http://sodipodi.sourceforge.net/DTD/sodipodi-0.dtd"
   xmlns:inkscape="http://www.inkscape.org/namespaces/inkscape"
   width="16.139584mm"
   height="16.139584mm"
   viewBox="0 0 16.139584 16.139584"
   version="1.1"
   id="svg8"
   inkscape:version="1.0.2 (e86c870879, 2021-01-15)"
   sodipodi:docname="icon.svg">
  <defs
     id="defs2" />
  <sodipodi:namedview
     id="base"
     pagecolor="#ffffff"
     bordercolor="#666666"
     borderopacity="1.0"
     inkscape:pageopacity="0.0"
     inkscape:pageshadow="2"
     inkscape:zoom="0.49497475"
     inkscape:cx="63.757095"
     inkscape:cy="22.381704"
     inkscape:document-units="mm"
     inkscape:current-layer="layer1"
     inkscape:document-rotation="0"
     showgrid="false"
     inkscape:window-width="1920"
     inkscape:window-height="1015"
     inkscape:window-x="0"
     inkscape:window-y="0"
     inkscape:window-maximized="1">
    <inkscape:grid
       type="xygrid"
       id="grid833"
       originx="-55.43021"
       originy="-110.99271" />
  </sodipodi:namedview>
  <metadata
     id="metadata5">
    <rdf:RDF>
      <cc:Work
         rdf:about="">
        <dc:format>image/svg+xml</dc:format>
        <dc:type
           rdf:resource="http://purl.org/dc/dcmitype/StillImage" />
        <dc:title></dc:title>
      </cc:Work>
    </rdf:RDF>
  </metadata>
  <g
     inkscape:label="Layer 1"
     inkscape:groupmode="layer"
     id="layer1"
     transform="translate(-55.430207,-110.99271)">
    <g
       id="g861"
       inkscape:export-xdpi="96"
       inkscape:export-ydpi="96">
      <path
         style="fill:#efeeea;fill-opacity:1;stroke:#efeeea;stroke-width:0.264583px;stroke-linecap:butt;stroke-linejoin:miter;stroke-opacity:1"
         d="m 55.562499,116.41667 v -2.64584 c 0,0 0,-2.64583 2.645834,-2.64583 2.645833,0 10.583333,0 10.583333,0 0,0 2.645833,0 2.645833,2.64583 0,2.64584 0,10.58334 0,10.58334 0,0 0,2.64583 -2.645833,2.64583 -2.645834,0 -10.583333,0 -10.583333,0 0,0 -2.645834,0 -2.645834,-2.64583 0,-2.64584 0,-7.9375 0,-7.9375 z"
         id="path847" />
      <g
         id="g853">
        <path
           style="fill:none;stroke:#0a047a;stroke-width:0.926042;stroke-linecap:round;stroke-linejoin:round;stroke-miterlimit:4;stroke-dasharray:none;stroke-opacity:1;paint-order:markers fill stroke"
           d="m 58.208333,119.0625 v 3.96875 c 0,0 0,1.32292 1.322916,1.32292 1.322917,0 7.9375,0 7.9375,0 0,0 1.322917,0 1.322917,-1.32292 0,-1.32292 0,-3.96875 0,-3.96875"
           id="path839" />
        <path
           style="fill:#000000;fill-opacity:0;stroke:#0a047a;stroke-width:0.926042;stroke-linecap:round;stroke-linejoin:round;stroke-miterlimit:4;stroke-dasharray:none;stroke-opacity:1;paint-order:markers fill stroke"
           d="m 59.531249,113.77083 h 7.9375"
           id="path841" />
        <path
           style="fill:none;stroke:#0a047a;stroke-width:0.926042;stroke-linecap:round;stroke-linejoin:round;stroke-miterlimit:4;stroke-dasharray:none;stroke-opacity:1;paint-order:markers fill stroke"
           d="m 63.499999,113.77083 v 7.9375"
           id="path843" />
        <path
           style="fill:none;stroke:#0a047a;stroke-width:0.926042;stroke-linecap:round;stroke-linejoin:round;stroke-miterlimit:4;stroke-dasharray:none;stroke-opacity:1;paint-order:markers fill stroke"
           d="m 60.854166,119.0625 2.645833,2.64583 2.645833,-2.64583"
           id="path845" />
      </g>
    </g>
  </g>
</svg>
